#N canvas -8 -8 1920 997 10;
#X obj 410 724 catch~ \$0-output;
#X obj 410 802 dac~ 1 2;
#X obj 594 690 tgl 24 0 empty empty empty 17 7 0 10 -4032 -1 -1 0 1
;
#X obj 594 719 metro 200;
#X obj 594 748 tabwrite~ \$0-scope;
#X obj 410 429 line~;
#X obj 410 566 cos~;
#X obj 410 634 throw~ \$0-output;
#X obj 410 463 sqrt~;
#X obj 410 600 lop~ 1000;
#X obj 410 768 /~ 5;
#X obj 410 495 *~ 10;
#X obj 410 537 -~ 0.25;
#X msg 410 393 0 \, 1 200;
#X obj 409 289 dumpOSC 8000;
#X obj 409 341 route /play;
#X connect 0 0 4 0;
#X connect 0 0 10 0;
#X connect 2 0 3 0;
#X connect 3 0 4 0;
#X connect 5 0 8 0;
#X connect 6 0 9 0;
#X connect 8 0 11 0;
#X connect 9 0 7 0;
#X connect 10 0 1 0;
#X connect 10 0 1 1;
#X connect 11 0 12 0;
#X connect 12 0 6 0;
#X connect 13 0 5 0;
#X connect 14 0 15 0;
#X connect 15 0 13 0;
